<?xml version="1.0" encoding="UTF-8"?>
<svg id="Layer_1" xmlns="http://www.w3.org/2000/svg" version="1.1" viewBox="0 0 400 400">
  <!-- Generator: Adobe Illustrator 29.8.3, SVG Export Plug-In . SVG Version: 2.1.1 Build 3)  -->
  <defs>
    <style>
      .st0 {
        fill: #e3e5e4;
      }

      .st1 {
        fill: #494a4c;
        fill-rule: evenodd;
      }
    </style>
  </defs>
  <rect class="st0" width="400" height="400"/>
  <path class="st1" d="M40,60h60v10h-10v10h20v30h-20v-10h-10v-10h-10v-20h-10v20h-10v10h-10v10h30v10h20v10h10v10h10v60h-10v10h-60v-10h-10v-40h30v10h-10v10h30v-10h10v-10h-20v-10h-10v-10h-10v-10h-10v-10h-10v-50h10v-10ZM130,60h60v10h10v30h-20v10h-10v-20h-10v-10h-30v10h20v90h10v10h-20v10h50v10h-60v-10h-10v-30h20v-20h-10v10h-10v-90h10v-10ZM210,60h30v10h-10v10h20v-20h20v20h-10v10h-20v50h20v10h10v20h-20v-10h-20v10h10v10h-10v10h-10v-10h-10v-70h10v-10h-10v-20h10v-10h-10v-10ZM310,60h60v20h-10v10h-20v-10h10v-10h-10v10h-10v-10h-10v20h-10v-30ZM270,80h20v20h-10v-10h-10v-10ZM260,90h10v10h-10v-10ZM320,90h10v10h10v30h-10v-20h-10v-20ZM270,100h10v10h10v30h-30v-10h10v-30ZM190,110h10v90h-10v-40h-10v-10h-10v-30h20v-10ZM310,110h10v30h-10v-30ZM350,120h10v10h10v20h-20v-10h-10v-10h10v-10ZM230,140v10h-10v-10h10ZM320,140h20v10h-10v10h-10v-20ZM310,160h10v20h-10v-20ZM330,160h10v20h10v10h10v10h-10v10h-20v-20h-10v-10h10v-20ZM270,170h10v20h10v10h-10v10h-20v-20h-10v-10h20v-10ZM170,180h10v10h-10v-10ZM360,180h10v10h-10v-10ZM210,190h10v10h20v10h-30v-20ZM310,190h10v20h-10v-20ZM360,200h10v10h-10v-10ZM30,230h30v20h10v50h10v30h-30v-10h10v-10h-20v20H10v-30h10v10h10v-10h-10v-50h20v-10h-10v-10ZM100,230h30v20h-10v-10h-10v10h10v60h20v-10h-10v-20h30v30h-10v10h10v10h-60v-10h-10v-80h10v-10ZM140,230h10v20h10v10h-30v-10h10v-20ZM170,230h20v10h-10v10h20v30h10v-10h10v20h-30v20h30v10h-10v10h-40v-40h10v-10h-10v-50ZM200,230h20v20h-10v-10h-10v-10ZM240,230h10v10h10v10h10v10h10v-20h10v-10h10v10h10v90h-10v-10h-20v-10h-10v-10h20v-10h-20v10h-10v-10h-10v-10h-10v30h10v-10h10v20h-30v-60h10v-10h-10v-10h10v-10ZM320,230h20v10h10v-10h10v10h10v-10h20v20h-20v80h-30v-10h10v-10h10v-50h-10v10h-10v-20h-10v-10h-10v-10ZM300,250v20h-10v-20h10ZM50,260v30h-10v-10h-10v-10h10v-10h10ZM340,280h10v30h-10v-30ZM110,290v10h-10v-10h10Z"/>
</svg>