<?xml version="1.0" encoding="UTF-8"?>
<svg id="Layer_1" xmlns="http://www.w3.org/2000/svg" version="1.1" viewBox="0 0 400 400">
  <!-- Generator: Adobe Illustrator 29.8.3, SVG Export Plug-In . SVG Version: 2.1.1 Build 3)  -->
  <defs>
    <style>
      .st0 {
        fill: #e3e5e4;
      }

      .st1 {
        fill: #494a4c;
        fill-rule: evenodd;
      }
    </style>
  </defs>
  <rect class="st0" width="400" height="400"/>
  <path class="st1" d="M20,90h50v10h-10v10h-20v20h10v10h10v10h10v10h10v30h-20v10h10v10H20v-10h-10v-20h20v10h10v10h10v-20h10v-10h-10v-10h-10v-10h-10v-20H10v-30h10v10h10v-10h-10v-10ZM100,90h50v10h10v60h-10v10h10v10h-20v-10h-10v-60h-10v10h-10v-20h-10v-10ZM180,90h50v10h10v10h-10v10h10v20h-10v30h10v30h-10v10h-50v-10h-10v-40h10v10h10v-10h-10v-20h-10v-40h10v-10ZM250,90h10v10h10v-10h30v20h-20v10h-10v40h10v20h-10v-10h-10v10h10v10h-10v10h10v-10h30v10h-10v10h-40v-80h10v-20h-10v-20ZM310,90h60v10h10v50h-10v30h-10v10h20v20h-20v-10h-10v-30h-10v40h-20v-10h10v-10h-10v-10h-10v-30h10v-10h-10v-10h10v-10h-10v-30ZM70,100h10v30h-30v-10h10v-10h10v-10ZM90,100h10v20h-10v-20ZM350,100v20h10v10h-10v10h-10v10h-10v-20h10v-10h-10v-10h10v-10h10ZM210,110v10h10v10h-10v10h-10v-30h10ZM100,120h10v10h10v40h-10v20h20v10h-20v10h-10v-10h-10v-10h10v-10h-10v-50h10v-10ZM150,140v10h-10v-10h10ZM280,140h10v10h10v10h-20v-20ZM210,160v30h-10v-30h10ZM130,180h10v10h-10v-10ZM140,190h20v10h-10v10h-20v-10h10v-10ZM310,190h10v10h-10v-10ZM30,230h30v20h10v50h10v30h-30v-20h-10v20H10v-10h10v-10h-10v-10h10v-50h10v-20ZM100,230h50v10h10v20h-30v-10h-10v10h-10v10h10v40h20v-10h-10v-20h10v10h10v10h10v30h-60v-10h-10v-10h10v-10h-10v-60h10v-10ZM170,230h50v20h-30v10h10v10h20v20h-10v-10h-10v30h20v10h-10v10h-10v-10h-10v10h-10v-10h-10v-20h10v-10h-10v-30h10v-10h-10v-20ZM230,230h20v10h10v10h-10v20h10v-20h10v10h10v-30h30v40h-10v10h10v50h-20v-20h10v-10h-20v10h-10v-10h-10v30h-10v-10h-10v10h-10v-30h10v-10h-10v-20h10v-10h-10v-10h10v-10h-10v-10ZM320,230h30v10h-10v10h-10v-10h-10v-10ZM370,230h20v20h-20v-20ZM350,240h10v10h-10v-10ZM300,250v10h-10v-10h10ZM360,250h10v20h-20v10h20v50h-30v-10h10v-10h10v-10h-10v10h-10v-50h20v-10ZM50,260v30h-10v-30h10ZM150,280h10v10h-10v-10ZM280,280v10h-10v-10h10Z"/>
</svg>